<?xml version="1.0" encoding="utf-8"?><!-- Generator: Adobe Illustrator 21.1.0, SVG Export Plug-In . SVG Version: 6.00 Build 0)  --><svg version="1.1" id="Layer_1" xmlns="http://www.w3.org/2000/svg" xmlns:xlink="http://www.w3.org/1999/xlink" x="0px" y="0px"	 viewBox="0 0 801.6 135.3" style="enable-background:new 0 0 801.6 135.3;" xml:space="preserve"><style type="text/css">	.st0{fill:#FFFFFF;}	.st1{fill:#251021;}	.st2{fill:#261120;}</style><g>	<polygon class="st0" points="58.2,51.8 93.8,49.7 93.8,39.2 58.3,44.5 	"/>	<polygon class="st0" points="58.3,39.8 93.8,34 93.8,18.9 58.3,28.7 	"/>	<path class="st0" d="M42.7,103.2c-5.5,0-10.9-2.4-20-12l-8,7.7l57.3,29c9.9-5.3,17.3-13.7,20.4-24.7l-35.5-9.3		C54.2,100.3,48.2,103.2,42.7,103.2z"/>	<path class="st0" d="M58,87.2c0,0.2,0,0.4,0,0.6l35.6,8.4c0.1-1.4,0.2-2.9,0.2-4.4V74.1l-35.7-2.5L58,87.2z"/>	<path class="st0" d="M0,113c10.9,12.8,22.4,21.7,43.5,21.7c4.2,0,8.2-0.4,12.1-1.1L8,105.3L0,113z"/>	<polygon class="st0" points="58.4,20.3 93.5,8.7 93.8,8.6 93.8,2.7 58.5,2.7 	"/>	<polygon class="st0" points="58.1,66 93.8,67.9 93.8,55.5 58.2,57.2 	"/>	<path class="st0" d="M140.3,68.7c0-5.6,1.1-10.8,3.1-15.5L104.7,55c-0.7,4-1.1,8.2-1.1,12.5c0,0.3,0,0.6,0,1l36.7,2		C140.3,69.9,140.3,69.3,140.3,68.7z"/>	<path class="st0" d="M141.4,77.4L104,74.8c0.2,2.2,0.5,4.4,0.9,6.5l40.3,5.4C143.6,83.8,142.3,80.7,141.4,77.4z"/>	<path class="st0" d="M196.8,93.5l39.8,5.3c2.3-4.5,4.1-9.4,5.3-14.5l-37.5-2.6C202.7,86.2,200.1,90.2,196.8,93.5z"/>	<path class="st0" d="M174.4,33.2c9.4,0,17.5,3.9,23.3,10.2l41.1-2.5c-3.4-8-8.3-15.2-14.4-21.1L110.8,36.7		c-1.9,3.9-3.5,7.9-4.7,12.2l41.3-2.5C153.4,38.3,162.9,33.2,174.4,33.2z"/>	<path class="st0" d="M173.8,103.6c-8.6,0-17.1-3.9-23.4-10.3L106.3,87c1.4,4.8,3.2,9.3,5.5,13.5l101.3,23.9		c8-5,14.8-11.6,19.9-19.4l-43-6.1C185.1,101.9,179.5,103.6,173.8,103.6z"/>	<path class="st0" d="M173.8,135.3c9,0,17.4-1.4,25.1-4.1L118.2,110C130.7,125.7,150.5,135.3,173.8,135.3z"/>	<path class="st0" d="M173.8,0.4c-26,0-47.5,11.7-59.6,30.3L217.4,14C205.7,5.4,190.7,0.4,173.8,0.4z"/>	<path class="st0" d="M202.6,50.4c2.8,5.3,4.4,11.5,4.4,18.3c0,1.8-0.1,3.6-0.4,5.4l36.9,2c0.3-2.8,0.5-5.7,0.5-8.6		c0-6.6-0.9-13-2.6-18.9L202.6,50.4z"/>	<polygon class="st0" points="289.3,46.3 252.8,48 252.8,76.6 289.5,78.6 	"/>	<path class="st0" d="M313.4,102.7c-6.2,0-18.8-1.7-22.7-14.9l-37.6-2.6c0.5,5.9,1.8,11.4,3.8,16.4l105,14		c5.1-6.1,8.7-13.5,10.6-22.1l-37.1-2.6C330.7,100.7,320.1,102.7,313.4,102.7z"/>	<polygon class="st0" points="289,10.2 252.8,15.6 252.8,40.1 289.2,37.9 	"/>	<path class="st0" d="M337.8,78.7c0,0.9,0,1.7-0.1,2.5l36.1,2c0.1-1.5,0.1-3,0.1-4.5V42.3L337.8,44V78.7z"/>	<path class="st0" d="M313.8,135c16.9,0,30.9-4.5,41.1-12.7l-94.4-13.4C270.3,125.5,289.1,135,313.8,135z"/>	<polygon class="st0" points="252.8,2.4 252.8,8.2 288.7,2.4 	"/>	<polygon class="st0" points="337.8,35 374,32.8 374,2.4 337.8,2.4 	"/>	<polygon class="st0" points="422.8,40 386.7,41.7 386.7,83.9 422.8,85.9 	"/>	<polygon class="st0" points="422.8,100.8 422.8,97 386.7,94.4 386.7,118.8 480.5,131.3 480.5,101 478.2,100.8 	"/>	<polygon class="st0" points="386.7,133.3 432.4,133.3 386.7,126.8 	"/>	<polygon class="st0" points="422.8,2.4 386.7,2.4 386.7,32 422.8,29.9 	"/>	<polygon class="st0" points="490.1,69 526.1,69.2 526.1,35.2 490.1,36.9 	"/>	<polygon class="st0" points="490.1,89.5 526.1,91.5 526.1,75.5 490.1,74.2 	"/>	<polygon class="st0" points="490.1,133.2 526.1,133.2 526.1,104.2 490.1,101.6 	"/>	<polygon class="st0" points="490.1,25.8 526.1,23.6 526.1,2.3 490.1,2.3 	"/>	<path class="st0" d="M574.5,77.4l-37.9-1.4c0.7,5.8,2,11.2,3.9,16.4l44.6,2.4C580.1,91,576.3,85.4,574.5,77.4z"/>	<path class="st0" d="M573.4,66.7c0-21.8,15.9-34,33.6-34c7.5,0,17.7,4.9,25.9,15.5l25.5-19.3l-114.2,5.4		c-5.3,9.6-8.2,20.7-8.2,32.8c0,0.7,0,1.5,0.1,2.2l37.4,0.2C573.5,68.6,573.4,67.7,573.4,66.7z"/>	<path class="st0" d="M621.9,96.7l28.1,1.5l-15.7-11.7C630.1,90.9,626,94.3,621.9,96.7z"/>	<path class="st0" d="M606.5,0c-21.9,0-40.6,8.3-53.3,22l97.9-5.9C639.4,6.7,624.9,0,606.5,0z"/>	<path class="st0" d="M547.3,105.6c12.1,18.2,32.9,29.6,57.9,29.6c17.6,0,36.7-6.7,51.5-22L547.3,105.6z"/>	<polygon class="st0" points="781.3,85.2 745.1,83.8 745.1,84 713,84 713.6,82.6 677.8,81.3 670.1,99.4 790,105.9 	"/>	<polygon class="st0" points="728.6,45.1 739.4,70.5 775.2,70.7 755.6,24.4 701,26.9 682.5,70.2 718.4,70.4 	"/>	<polygon class="st0" points="655.6,133.3 694.3,133.3 700.7,116.3 664,113.8 	"/>	<polygon class="st0" points="797.2,123 757.5,120.3 763.1,133.3 801.6,133.3 	"/>	<polygon class="st0" points="746.3,2.4 711.4,2.4 707,12.7 749.6,10.2 	"/></g></svg>