<?xml version="1.0" encoding="utf-8"?>
<!-- Generator: Adobe Illustrator 21.1.0, SVG Export Plug-In . SVG Version: 6.00 Build 0)  -->
<svg version="1.1" id="Layer_1" xmlns="http://www.w3.org/2000/svg" xmlns:xlink="http://www.w3.org/1999/xlink" x="0px" y="0px"
	 viewBox="0 0 361.5 219.5" style="enable-background:new 0 0 361.5 219.5;" xml:space="preserve">
<style type="text/css">
	.st0{fill:#FFFFFF;}
</style>
<g>
	<polygon class="st0" points="72.8,1.9 45.2,1.9 45.2,38.1 72.8,43.9 	"/>
	<path class="st0" d="M44.4,103.6C70.5,99.1,72.7,74,72.7,74l0.2-14.2l-27.7-4.5c0,0,0.5,6.3-0.3,13.9c-0.1,1.1-0.5,9.2-10.3,10.4
		c-4.4,0.6-10.8-2.4-16.7-8.7C17.4,70.3,0,87.4,0,87.4S14.3,108.8,44.4,103.6z"/>
	<path class="st0" d="M124.2,0.8l55.9,21.9C180.1,22.7,164.9-4.9,124.2,0.8z"/>
	<path class="st0" d="M134.8,25c14.4,0,25.8,10.8,25.8,29.4c0,2.6-0.6,5-1.5,7.4l27.9,5.5c4.8-16.9,0.4-28.3,0.4-28.3l-85.7-28.8
		C82.7,24.8,80.8,45.6,80.8,45.6l28.6,5.9C110.4,35.7,119.5,25,134.8,25z"/>
	<path class="st0" d="M182.5,77.5l-30.1-4.9c-3.2,4.3-12.2,7.9-21.7,6.4c-9.4-1.5-16.2-8.1-17.7-12.8l-31.7-5.2
		c-0.3,6.4,11.2,41.8,49.7,43.5C169.5,106.2,182.5,77.5,182.5,77.5z"/>
	<polygon class="st0" points="225,1.8 196.5,1.8 196.5,29.3 225,40.3 	"/>
	<path class="st0" d="M233.6,76.9c-10.4-4.8-8.6-25.4-8.6-25.4L196.5,42c-0.8,20.5,0.8,27.7,0.8,27.7L233.6,76.9z"/>
	<path class="st0" d="M236.7,104.2c30.7,2,40.8-11.3,40.8-11.3l-77.1-12.5C210.2,104.1,236.7,104.2,236.7,104.2z"/>
	<path class="st0" d="M245.2,79.4l37.8,7.8c3.8-5,5.8-14.5,5.8-14.5l-27.1-9.1C259.1,79.4,245.2,79.4,245.2,79.4z"/>
	<polygon class="st0" points="261.9,54.5 290.4,65.6 290.4,29.4 261.9,9.9 	"/>
	<polygon class="st0" points="290.4,22.4 290.4,1.8 261.9,1.8 	"/>
	<polygon class="st0" points="328.3,1.8 311.7,1.8 328.3,19.5 	"/>
	<polygon class="st0" points="328.3,29 300.3,1.8 300.3,29.6 328.3,50.2 	"/>
	<polygon class="st0" points="328.3,77.9 328.3,55 300.3,36.2 300.3,69.3 361.5,93.2 361.5,77.9 	"/>
	<polygon class="st0" points="300.3,90.8 357.8,102.8 361.5,102.8 361.5,97.3 300.3,76.8 	"/>
	<polygon class="st0" points="300.3,102.8 336,102.8 300.3,96.7 	"/>
	<polygon class="st0" points="18.9,130.8 46.8,129.6 46.8,116.7 18.9,116.7 	"/>
	<polygon class="st0" points="18.9,180 46.8,175.1 46.8,146.3 18.9,148.3 	"/>
	<polygon class="st0" points="18.9,217.5 46.8,217.5 46.8,188.3 18.9,193.6 	"/>
	<path class="st0" d="M106.4,114.6c-21.1,0-35,13.8-35,13.8l69.9-2.6C141.3,125.8,130.4,114.6,106.4,114.6z"/>
	<path class="st0" d="M98.3,142.1l-39,2.8c-6.4,12.9-4.3,29-4.3,29l28.7-4.8C82.6,148,98.3,142.1,98.3,142.1z"/>
	<path class="st0" d="M129.7,152.1l17.8-14.2l-34,2.7C126.2,145,129.7,152.1,129.7,152.1z"/>
	<path class="st0" d="M130.5,181.8c-10.1,13.7-23.3,12.2-23.3,12.2C91.4,193.6,86.3,180,86.3,180l-28.4,5.9
		c5,15.3,18.6,24.5,18.6,24.5l67.2-19.1L130.5,181.8z"/>
	<path class="st0" d="M126.3,216.5c15.3-5.5,22.7-16.8,22.7-16.8l-56.3,17.8C108,222.4,126.3,216.5,126.3,216.5z"/>
	<polygon class="st0" points="220.1,115.8 193,115.8 190,123.8 222.9,122.5 	"/>
	<polygon class="st0" points="185,134.8 177.1,153.5 231.9,144.3 226.5,131.4 	"/>
	<polygon class="st0" points="203,157 173.3,162.9 163.8,185.9 195.4,176.9 	"/>
	<polygon class="st0" points="240.4,164.3 234.6,150.8 209,155.8 215.4,171.4 	"/>
	<polygon class="st0" points="242.8,170.4 159,196.5 150.1,217.6 179.6,217.6 186.8,199.8 224.7,199.8 250.5,188 	"/>
	<polygon class="st0" points="229.6,209.6 232.8,217.6 263.1,217.6 254.4,197.3 	"/>
</g>
</svg>
