<svg width="16" height="16" viewBox="0 0 16 16" fill="none" xmlns="http://www.w3.org/2000/svg">
<path d="M11.4222 5.35072L8.77778 7.99223L11.4222 10.6337L10.6444 11.4107L7.22222 7.99223L10.6444 4.57381L11.4222 5.35072ZM3.45778 13.3063C3.73778 13.5394 4.03333 13.7569 4.34444 13.9434L4.92 13.0111C4.65556 12.8557 4.40667 12.6693 4.17333 12.4673L3.45778 13.3063ZM2.04222 11.6593C2.22889 11.97 2.44667 12.2653 2.68 12.545L3.50444 11.8302C3.30222 11.5971 3.13111 11.3485 2.96 11.0844L2.04222 11.6593ZM1.20222 9.65483C1.29556 10.0122 1.40444 10.3541 1.54444 10.6959L2.55556 10.2764C2.43111 9.99667 2.33778 9.70144 2.27556 9.40622L1.20222 9.65483ZM5.71333 13.4462L5.29333 14.4562C5.63556 14.596 5.97778 14.7048 6.33556 14.798L6.6 13.7414C6.28889 13.6482 6.00889 13.5549 5.71333 13.4462ZM2.10444 8.48946C2.08889 8.33407 2.08889 8.16315 2.08889 7.99223H1C1 8.19423 1.01556 8.38069 1.03111 8.58269L2.10444 8.48946ZM8 1C5.93111 1 3.95556 1.91676 2.63333 3.50167V1H1.54444V5.27303H5.82222V4.18535H3.48889C5.58889 1.69922 9.32222 1.37292 11.8111 3.48613C14.3 5.59933 14.6267 9.31299 12.5111 11.7991C11.3911 13.1354 9.74222 13.8968 8 13.8968C7.82889 13.8968 7.65778 13.8968 7.50222 13.8812L7.40889 14.9689C7.59556 14.9845 7.79778 15 8 15C11.8733 15 15 11.8768 15 8.00777C15 4.13873 11.8733 1 8 1Z" fill="#CCCCCC" stroke="#CCCCCC" stroke-width="0.5"/>
</svg>
