<svg width="21" height="14" viewBox="0 0 21 14" fill="none" xmlns="http://www.w3.org/2000/svg">
<path d="M13.7879 0C15.7007 0 17.5351 0.737498 18.8876 2.05025C20.2402 3.36301 21 5.14348 21 7C21 8.85651 20.2402 10.637 18.8876 11.9497C17.5351 13.2625 15.7007 14 13.7879 14C11.8751 14 10.0407 13.2625 8.68814 11.9497C7.3356 10.637 6.57576 8.85651 6.57576 7C6.57576 5.14348 7.3356 3.36301 8.68814 2.05025C10.0407 0.737498 11.8751 0 13.7879 0ZM13.7879 1.75C12.3533 1.75 10.9775 2.30312 9.96307 3.28769C8.94867 4.27226 8.37879 5.60761 8.37879 7C8.37879 8.39239 8.94867 9.72775 9.96307 10.7123C10.9775 11.6969 12.3533 12.25 13.7879 12.25C15.2225 12.25 16.5983 11.6969 17.6127 10.7123C18.6271 9.72775 19.197 8.39239 19.197 7C19.197 5.60761 18.6271 4.27226 17.6127 3.28769C16.5983 2.30312 15.2225 1.75 13.7879 1.75ZM12.8864 3.5H14.2386V6.8075L16.3392 8.84625L15.3836 9.77375L12.8864 7.35V3.5ZM0.901515 12.25C0.662418 12.25 0.433115 12.1578 0.264048 11.9937C0.0949812 11.8296 0 11.6071 0 11.375C0 11.1429 0.0949812 10.9204 0.264048 10.7563C0.433115 10.5922 0.662418 10.5 0.901515 10.5H5.52099C5.80045 11.1212 6.16106 11.7075 6.57576 12.25H0.901515ZM1.80303 7.875C1.56393 7.875 1.33463 7.78281 1.16556 7.61872C0.996496 7.45462 0.901515 7.23206 0.901515 7C0.901515 6.76794 0.996496 6.54538 1.16556 6.38128C1.33463 6.21719 1.56393 6.125 1.80303 6.125H4.8178L4.77273 7L4.8178 7.875H1.80303ZM2.70455 3.5C2.46545 3.5 2.23614 3.40781 2.06708 3.24372C1.89801 3.07962 1.80303 2.85706 1.80303 2.625C1.80303 2.39294 1.89801 2.17038 2.06708 2.00628C2.23614 1.84219 2.46545 1.75 2.70455 1.75H6.57576C6.16106 2.2925 5.80045 2.87875 5.52099 3.5H2.70455Z" fill="#CCCCCC"/>
</svg>
