<svg width="11" height="14" viewBox="0 0 11 14" fill="none" xmlns="http://www.w3.org/2000/svg">
<path d="M10.3125 14H11V12.6H10.3125V11.9C10.3112 11.0496 10.093 10.2142 9.67925 9.47548C9.26552 8.73678 8.67045 8.12016 7.95231 7.686C7.70825 7.539 7.5625 7.3031 7.5625 7.0553V6.9447C7.5625 6.6969 7.70825 6.461 7.95162 6.3147C8.6699 5.88046 9.2651 5.26374 9.67895 4.52493C10.0928 3.78611 10.3111 2.95053 10.3125 2.1V1.4H11V0H0V1.4H0.6875V2.1C0.688894 2.95053 0.907205 3.78611 1.32105 4.52493C1.7349 5.26374 2.3301 5.88046 3.04838 6.3147C3.29175 6.461 3.4375 6.6962 3.4375 6.9447V7.0553C3.4375 7.3031 3.29175 7.539 3.04838 7.6853C2.3301 8.11954 1.7349 8.73625 1.32105 9.47507C0.907205 10.2139 0.688894 11.0495 0.6875 11.9V12.6H0V14H10.3125ZM8.9375 1.4V2.1C8.93646 2.85757 8.69427 3.59439 8.24725 4.2H2.75275C2.30573 3.59439 2.06354 2.85757 2.0625 2.1V1.4H8.9375ZM3.74687 8.8914C4.41444 8.4896 4.8125 7.8036 4.8125 7.0553V7H6.1875V7.0553C6.1875 7.8029 6.58556 8.4896 7.25381 8.8914C7.87155 9.26571 8.35791 9.82851 8.64394 10.5H2.35606C2.64215 9.82833 3.12879 9.26549 3.74687 8.8914Z" fill="#CCCCCC"/>
</svg>
