<?xml version="1.0" encoding="utf-8"?><svg xml:space="preserve" viewBox="0 0 100 100" y="0" x="0" xmlns="http://www.w3.org/2000/svg" id="圖層_1" version="1.1" width="128px" height="128px" xmlns:xlink="http://www.w3.org/1999/xlink" style="width:100%;height:100%;background-size:initial;background-repeat-y:initial;background-repeat-x:initial;background-position-y:initial;background-position-x:initial;background-origin:initial;background-image:initial;background-color:rgb(255, 255, 255);background-clip:initial;background-attachment:initial;animation-play-state:paused" ><g class="ldl-scale" style="transform-origin:50% 50%;transform:rotate(0deg) scale(1, 1);animation-play-state:paused" ><circle stroke-width="3.5" fill="none" stroke="#e0e0e0" stroke-miterlimit="10" r="33.625" cy="50" cx="50" style="stroke:rgb(51, 51, 51);animation-play-state:paused" ></circle>
<path stroke-miterlimit="10" stroke="#333" fill="#333" d="M41 38.961c-5.82 0-5.58 5.58-5.58 10.29 0 3.449-.54 10.259 5.58 10.259s5.58-7.049 5.58-10.259c0-2.25.779-10.29-5.58-10.29zm0 18.659c-2.04 0-3.479-.51-3.479-8.369 0-3.99-.3-8.4 3.479-8.4 2.13 0 3.48.66 3.48 8.4-.001 7.439-1.17 8.369-3.48 8.369z" style="stroke:rgb(51, 51, 51);fill:rgb(51, 51, 51);animation-play-state:paused" ></path>
<path stroke-miterlimit="10" stroke="#333" fill="#333" d="M58.999 38.961c-5.82 0-5.58 5.58-5.58 10.29 0 3.449-.54 10.259 5.58 10.259s5.58-7.049 5.58-10.259c0-2.25.78-10.29-5.58-10.29zm0 18.659c-2.04 0-3.48-.51-3.48-8.369 0-3.99-.3-8.4 3.48-8.4 2.13 0 3.48.66 3.48 8.4 0 7.439-1.17 8.369-3.48 8.369z" style="stroke:rgb(51, 51, 51);fill:rgb(51, 51, 51);animation-play-state:paused" ></path>
<metadata xmlns:d="https://loading.io/stock/" style="animation-play-state:paused" ><d:name style="animation-play-state:paused" >0%</d:name>


<d:tags style="animation-play-state:paused" >0,percentage,progress,loading,status,bar,curved,circular,downloading,process</d:tags>


<d:license style="animation-play-state:paused" >by</d:license>


<d:slug style="animation-play-state:paused" >g84br9</d:slug></metadata></g><!-- generated by https://loading.io/ --></svg>