<?xml version="1.0" encoding="utf-8"?><svg viewBox="0 0 100 100" xmlns="http://www.w3.org/2000/svg" width="20px" height="20px" xmlns:xlink="http://www.w3.org/1999/xlink" style="width:100%;height:100%;background-size:initial;background-repeat-y:initial;background-repeat-x:initial;background-position-y:initial;background-position-x:initial;background-origin:initial;background-color:initial;background-clip:initial;background-attachment:initial;animation-play-state:paused" ><g class="ldl-scale" style="transform-origin:50% 50%;transform:rotate(0deg) scale(0.8, 0.8);animation-play-state:paused" ><path fill="#333" d="M46.7 40.2V17.6c-14.1.9-26.8 8.6-34.4 20l19.4 11.3c3.6-4.7 9.6-8 15-8.7z" style="fill:rgb(51, 51, 51);animation-play-state:paused" ></path>
<path fill="#333" d="M72.5 62.5c0 3.1-.6 6-1.8 8.7l19.6 11.3c3-6 4.7-12.8 4.7-20 0-7.2-1.7-14-4.7-20L70.7 53.8c1.2 2.6 1.8 5.6 1.8 8.7z" style="fill:rgb(51, 51, 51);animation-play-state:paused" ></path>
<path fill="#333" d="M27.5 62.5c0-3.1.6-6 1.8-8.7L9.7 42.5c-3 6-4.7 12.8-4.7 20 0 7.2 1.7 14 4.7 20l19.6-11.3c-1.2-2.7-1.8-5.6-1.8-8.7z" style="fill:rgb(51, 51, 51);animation-play-state:paused" ></path>
<path fill="#333" d="M76.4 17.5c-2.6 8-20.1 46.1-21.7 48.8-1.6 2.7-5 3.6-7.7 2.1-2.7-1.6-3.6-5-2.1-7.7 1.6-2.7 26.4-36.8 31.5-43.2z" style="fill:rgb(51, 51, 51);animation-play-state:paused" ></path>
<path fill="#333" d="M73.7 24.3c-.6-.4-1.2-.7-1.7-1-3.7 4.9-8.8 11.9-13.6 18.5 2.2.9 4.3 2.2 6 3.7 3.4-7.5 6.9-15.4 9.3-21.2z" style="fill:rgb(51, 51, 51);animation-play-state:paused" ></path>
<path fill="#333" d="M87.3 37.6c-3.2-4.8-7.2-9-11.9-12.2-2.5 5.9-6 13.9-9.4 21.4.7.7 1.3 1.4 1.9 2.1l19.4-11.3z" style="fill:rgb(51, 51, 51);animation-play-state:paused" ></path>
<path fill="#333" d="M52.7 17.6v22.6c1.3.2 2.7.5 4 .9 4.8-6.6 10-13.7 13.8-18.7-5.3-2.7-11.7-4.4-17.8-4.8z" style="fill:rgb(51, 51, 51);animation-play-state:paused" ></path>
<metadata xmlns:d="https://loading.io/stock/" style="animation-play-state:paused" ><d:name style="animation-play-state:paused" >gauge</d:name>
<d:tags style="animation-play-state:paused" >gauge,meter,dashboard,speed,temperature,monitor,visualization,visualize</d:tags>
<d:license style="animation-play-state:paused" >by</d:license>
<d:slug style="animation-play-state:paused" >35s7nl</d:slug></metadata></g><!-- generated by https://loading.io/ --></svg>