<?xml version="1.0" encoding="utf-8"?><svg viewBox="0 0 100 100" xmlns="http://www.w3.org/2000/svg" width="20px" height="20px" xmlns:xlink="http://www.w3.org/1999/xlink" style="width:100%;height:100%;background-size:initial;background-repeat-y:initial;background-repeat-x:initial;background-position-y:initial;background-position-x:initial;background-origin:initial;background-color:initial;background-clip:initial;background-attachment:initial;animation-play-state:paused" ><g class="ldl-scale" style="transform-origin:50% 50%;transform:rotate(0deg) scale(1, 1);animation-play-state:paused" ><path fill="#333" d="M85.2 43.2c.9.5 2 .8 3.1.8a6.7 6.7 0 1 0-6.7-6.7c0 1.1.3 2.2.8 3.1l-6.8 6.8-6.8-6.8c.5-.9.8-2 .8-3.1 0-3.7-3-6.7-6.7-6.7-1.1 0-2.2.3-3.1.8L53 24.6l6.8-6.8c.9.5 2 .8 3.1.8 3 0 5.5-2 6.4-4.7H82c.9 2.7 3.4 4.7 6.4 4.7 3.7 0 6.7-3 6.7-6.7S92 5 88.3 5c-3 0-5.6 2-6.4 4.7H69.2C68.3 7 65.8 5 62.8 5c-3.7 0-6.7 3-6.7 6.7 0 1.1.3 2.2.8 3.1L50 21.7l-6.8-6.8c.5-.9.8-2 .8-3.1 0-3.7-3-6.7-6.7-6.7-3 0-5.6 2-6.4 4.7H18.1C17.3 7 14.7 5 11.7 5a6.7 6.7 0 0 0 0 13.4c3 0 5.5-2 6.4-4.7h12.7c.9 2.7 3.4 4.7 6.4 4.7 1.1 0 2.2-.3 3.1-.8l6.8 6.8-6.8 6.8c-.9-.5-2-.8-3.1-.8-3 0-5.6 2-6.4 4.7H18.1c-.8-2.7-3.4-4.7-6.4-4.7a6.7 6.7 0 0 0 0 13.4c3 0 5.5-2 6.4-4.7h12.7c.9 2.7 3.4 4.7 6.4 4.7 3.7 0 6.7-3 6.7-6.7 0-1.1-.3-2.2-.8-3.1l6.8-6.8 6.8 6.8c-.5.9-.8 2-.8 3.1 0 3.7 3 6.7 6.7 6.7 1.1 0 2.2-.3 3.1-.8l6.8 6.8-6.8 6.8c-.9-.5-2-.8-3.1-.8-3 0-5.6 2-6.4 4.7H43.6c-.8-2.7-3.4-4.7-6.4-4.7-3.7 0-6.7 3-6.7 6.7 0 1.1.3 2.2.8 3.1l-6.8 6.8-6.8-6.8c.5-.9.8-2 .8-3.1 0-3.7-3-6.7-6.7-6.7S5 59.1 5 62.8s3 6.7 6.7 6.7c1.1 0 2.2-.3 3.1-.8l6.8 6.8-6.8 6.8c-.9-.5-2-.8-3.1-.8-3.7 0-6.7 3-6.7 6.7S8 95 11.7 95s6.7-3 6.7-6.7c0-1.1-.3-2.2-.8-3.1l6.8-6.8 6.8 6.8c-.5.9-.8 2-.8 3.1 0 3.7 3 6.7 6.7 6.7 3 0 5.5-2 6.4-4.7h12.7c.9 2.7 3.4 4.7 6.4 4.7 3 0 5.5-2 6.4-4.7h12.7c.9 2.7 3.4 4.7 6.4 4.7a6.7 6.7 0 0 0 0-13.4c-3 0-5.6 2-6.4 4.7H69.2c-.8-2.7-3.4-4.7-6.4-4.7s-5.6 2-6.4 4.7H43.6c-.8-2.7-3.4-4.7-6.4-4.7-1.1 0-2.2.3-3.1.8l-6.8-6.8 6.8-6.8c.9.5 2 .8 3.1.8 3 0 5.5-2 6.4-4.7h12.7c.9 2.7 3.4 4.7 6.4 4.7 3.7 0 6.7-3 6.7-6.7 0-1.1-.3-2.2-.8-3.1l6.8-6.8 6.8 6.8c-.5.9-.8 2-.8 3.1a6.7 6.7 0 1 0 6.7-6.7c-1.1 0-2.2.3-3.1.8l-6.7-7 6.9-6.8zm3.1-9.2c1.8 0 3.2 1.4 3.2 3.2s-1.4 3.2-3.2 3.2-3.2-1.4-3.2-3.2 1.4-3.2 3.2-3.2zm0-25.5c1.8 0 3.2 1.4 3.2 3.2s-1.4 3.2-3.2 3.2-3.2-1.4-3.2-3.2 1.4-3.2 3.2-3.2zm-25.5 0c1.8 0 3.2 1.4 3.2 3.2s-1.4 3.2-3.2 3.2-3.2-1.4-3.2-3.2 1.4-3.2 3.2-3.2zm-51.1 6.4c-1.8 0-3.2-1.4-3.2-3.2s1.4-3.2 3.2-3.2 3.2 1.4 3.2 3.2-1.4 3.2-3.2 3.2zM34 11.7c0-1.8 1.4-3.2 3.2-3.2s3.2 1.4 3.2 3.2-1.4 3.2-3.2 3.2-3.2-1.4-3.2-3.2zM11.7 40.5c-1.8 0-3.2-1.4-3.2-3.2S9.9 34 11.7 34s3.2 1.4 3.2 3.2-1.4 3.3-3.2 3.3zm25.5 0c-1.8 0-3.2-1.4-3.2-3.2s1.4-3.2 3.2-3.2 3.2 1.4 3.2 3.2-1.4 3.2-3.2 3.2zm22.3-3.3c0-1.8 1.4-3.2 3.2-3.2s3.2 1.4 3.2 3.2-1.4 3.2-3.2 3.2-3.2-1.4-3.2-3.2zm-51 25.6c0-1.8 1.4-3.2 3.2-3.2s3.2 1.4 3.2 3.2-1.4 3.2-3.2 3.2-3.2-1.5-3.2-3.2zm3.2 28.7c-1.8 0-3.2-1.4-3.2-3.2s1.4-3.2 3.2-3.2 3.2 1.4 3.2 3.2-1.4 3.2-3.2 3.2zm76.6-6.4c1.8 0 3.2 1.4 3.2 3.2s-1.4 3.2-3.2 3.2-3.2-1.4-3.2-3.2 1.4-3.2 3.2-3.2zm-25.5 0c1.8 0 3.2 1.4 3.2 3.2s-1.4 3.2-3.2 3.2-3.2-1.4-3.2-3.2 1.4-3.2 3.2-3.2zm-22.3 3.2c0 1.8-1.4 3.2-3.2 3.2S34 90.1 34 88.3s1.4-3.2 3.2-3.2 3.3 1.4 3.3 3.2zM37.2 66c-1.8 0-3.2-1.4-3.2-3.2s1.4-3.2 3.2-3.2 3.2 1.4 3.2 3.2S39 66 37.2 66zm25.6 0c-1.8 0-3.2-1.4-3.2-3.2s1.4-3.2 3.2-3.2S66 61 66 62.8 64.5 66 62.8 66zm28.7-3.2c0 1.8-1.4 3.2-3.2 3.2s-3.2-1.4-3.2-3.2 1.4-3.2 3.2-3.2 3.2 1.4 3.2 3.2z" style="fill:rgb(51, 51, 51);animation-play-state:paused" ></path>
<metadata xmlns:d="https://loading.io/stock/" style="animation-play-state:paused" ><d:name style="animation-play-state:paused" >bump chart</d:name>
<d:tags style="animation-play-state:paused" >bump chart,rank,order,line chart,trend,visualization,visualize</d:tags>
<d:license style="animation-play-state:paused" >by</d:license>
<d:slug style="animation-play-state:paused" >sa9s3x</d:slug></metadata></g><!-- generated by https://loading.io/ --></svg>