<svg width="12" height="12" viewBox="0 0 12 12" fill="none" xmlns="http://www.w3.org/2000/svg">
<path d="M6 2.32258C4.71774 2.32258 3.67742 3.3629 3.67742 4.64516C3.67742 5.92742 4.71774 6.96774 6 6.96774C7.28226 6.96774 8.32258 5.92742 8.32258 4.64516C8.32258 3.3629 7.28226 2.32258 6 2.32258ZM6 5.80645C5.35887 5.80645 4.83871 5.28629 4.83871 4.64516C4.83871 4.00403 5.35887 3.48387 6 3.48387C6.64113 3.48387 7.16129 4.00403 7.16129 4.64516C7.16129 5.28629 6.64113 5.80645 6 5.80645ZM6 0C2.68548 0 0 2.68548 0 6C0 9.31452 2.68548 12 6 12C9.31452 12 12 9.31452 12 6C12 2.68548 9.31452 0 6 0ZM6 10.8387C4.79758 10.8387 3.69919 10.396 2.85242 9.66774C3.2129 9.11129 3.82984 8.73387 4.53629 8.7121C5.03952 8.86694 5.51855 8.94436 6 8.94436C6.48145 8.94436 6.96048 8.86935 7.46371 8.7121C8.17016 8.73629 8.7871 9.11129 9.14758 9.66774C8.30081 10.396 7.20242 10.8387 6 10.8387ZM9.93629 8.80403C9.34597 8.04435 8.43387 7.54839 7.39355 7.54839C7.14677 7.54839 6.76452 7.78064 6 7.78064C5.2379 7.78064 4.85323 7.54839 4.60645 7.54839C3.56855 7.54839 2.65645 8.04435 2.06371 8.80403C1.49758 8.0129 1.16129 7.04516 1.16129 6C1.16129 3.33145 3.33145 1.16129 6 1.16129C8.66855 1.16129 10.8387 3.33145 10.8387 6C10.8387 7.04516 10.5024 8.0129 9.93629 8.80403Z" fill="white"/>
</svg>
