<svg width="10" height="10" viewBox="0 0 10 10" fill="none" xmlns="http://www.w3.org/2000/svg">
<path d="M3.02083 0.9H2.91667C2.97396 0.9 3.02083 0.855 3.02083 0.8V0.9H6.97917V0.8C6.97917 0.855 7.02604 0.9 7.08333 0.9H6.97917V1.8H7.91667V0.8C7.91667 0.35875 7.54297 0 7.08333 0H2.91667C2.45703 0 2.08333 0.35875 2.08333 0.8V1.8H3.02083V0.9ZM9.58333 1.8H0.416667C0.186198 1.8 0 1.97875 0 2.2V2.6C0 2.655 0.046875 2.7 0.104167 2.7H0.890625L1.21224 9.2375C1.23307 9.66375 1.60026 10 2.04427 10H7.95573C8.40104 10 8.76693 9.665 8.78776 9.2375L9.10937 2.7H9.89583C9.95312 2.7 10 2.655 10 2.6V2.2C10 1.97875 9.8138 1.8 9.58333 1.8ZM7.85547 9.1H2.14453L1.82943 2.7H8.17057L7.85547 9.1Z" fill="#CCCCCC"/>
</svg>
