<svg width="12" height="12" viewBox="0 0 12 12" fill="none" xmlns="http://www.w3.org/2000/svg">
<path d="M6 1.2C8.646 1.2 10.8 3.354 10.8 6C10.8 8.646 8.646 10.8 6 10.8C3.354 10.8 1.2 8.646 1.2 6C1.2 3.354 3.354 1.2 6 1.2ZM6 0C2.6862 0 0 2.6862 0 6C0 9.3138 2.6862 12 6 12C9.3138 12 12 9.3138 12 6C12 2.6862 9.3138 0 6 0ZM8.4 4.8C8.4 3.474 7.326 2.4 6 2.4C4.674 2.4 3.6 3.474 3.6 4.8H4.8C4.8 4.1382 5.3382 3.6 6 3.6C6.6618 3.6 7.2 4.1382 7.2 4.8C7.2 5.4618 6.6618 6 6 6C5.84087 6 5.68826 6.06321 5.57574 6.17574C5.46321 6.28826 5.4 6.44087 5.4 6.6V7.8H6.6V7.116C7.11424 6.98397 7.57006 6.68486 7.89586 6.26567C8.22167 5.84647 8.399 5.33092 8.4 4.8ZM6.6 8.4H5.4V9.6H6.6V8.4Z" fill="white"/>
</svg>
