<svg width="12" height="10" viewBox="0 0 12 10" fill="none" xmlns="http://www.w3.org/2000/svg">
<path d="M1.875 7.69231H0.375C0.275544 7.69231 0.180161 7.73283 0.109835 7.80496C0.0395088 7.87709 0 7.97492 0 8.07692L0 9.61539C0 9.71739 0.0395088 9.81522 0.109835 9.88735C0.180161 9.95948 0.275544 10 0.375 10H1.875C1.97446 10 2.06984 9.95948 2.14016 9.88735C2.21049 9.81522 2.25 9.71739 2.25 9.61539V8.07692C2.25 7.97492 2.21049 7.87709 2.14016 7.80496C2.06984 7.73283 1.97446 7.69231 1.875 7.69231ZM1.875 0H0.375C0.275544 0 0.180161 0.0405218 0.109835 0.112651C0.0395088 0.184781 0 0.282609 0 0.384615L0 1.92308C0 2.02508 0.0395088 2.12291 0.109835 2.19504C0.180161 2.26717 0.275544 2.30769 0.375 2.30769H1.875C1.97446 2.30769 2.06984 2.26717 2.14016 2.19504C2.21049 2.12291 2.25 2.02508 2.25 1.92308V0.384615C2.25 0.282609 2.21049 0.184781 2.14016 0.112651C2.06984 0.0405218 1.97446 0 1.875 0ZM1.875 3.84615H0.375C0.275544 3.84615 0.180161 3.88668 0.109835 3.95881C0.0395088 4.03093 0 4.12876 0 4.23077L0 5.76923C0 5.87124 0.0395088 5.96907 0.109835 6.0412C0.180161 6.11332 0.275544 6.15385 0.375 6.15385H1.875C1.97446 6.15385 2.06984 6.11332 2.14016 6.0412C2.21049 5.96907 2.25 5.87124 2.25 5.76923V4.23077C2.25 4.12876 2.21049 4.03093 2.14016 3.95881C2.06984 3.88668 1.97446 3.84615 1.875 3.84615ZM11.625 8.07692H4.125C4.02554 8.07692 3.93016 8.11744 3.85984 8.18957C3.78951 8.2617 3.75 8.35953 3.75 8.46154V9.23077C3.75 9.33278 3.78951 9.4306 3.85984 9.50273C3.93016 9.57486 4.02554 9.61539 4.125 9.61539H11.625C11.7245 9.61539 11.8198 9.57486 11.8902 9.50273C11.9605 9.4306 12 9.33278 12 9.23077V8.46154C12 8.35953 11.9605 8.2617 11.8902 8.18957C11.8198 8.11744 11.7245 8.07692 11.625 8.07692ZM11.625 0.384615H4.125C4.02554 0.384615 3.93016 0.425137 3.85984 0.497267C3.78951 0.569396 3.75 0.667224 3.75 0.769231V1.53846C3.75 1.64047 3.78951 1.7383 3.85984 1.81043C3.93016 1.88256 4.02554 1.92308 4.125 1.92308H11.625C11.7245 1.92308 11.8198 1.88256 11.8902 1.81043C11.9605 1.7383 12 1.64047 12 1.53846V0.769231C12 0.667224 11.9605 0.569396 11.8902 0.497267C11.8198 0.425137 11.7245 0.384615 11.625 0.384615ZM11.625 4.23077H4.125C4.02554 4.23077 3.93016 4.27129 3.85984 4.34342C3.78951 4.41555 3.75 4.51338 3.75 4.61538V5.38462C3.75 5.48662 3.78951 5.58445 3.85984 5.65658C3.93016 5.72871 4.02554 5.76923 4.125 5.76923H11.625C11.7245 5.76923 11.8198 5.72871 11.8902 5.65658C11.9605 5.58445 12 5.48662 12 5.38462V4.61538C12 4.51338 11.9605 4.41555 11.8902 4.34342C11.8198 4.27129 11.7245 4.23077 11.625 4.23077Z" fill="white"/>
</svg>
