<?xml version="1.0" encoding="iso-8859-1"?>
<!-- Generator: Adobe Illustrator 19.0.0, SVG Export Plug-In . SVG Version: 6.00 Build 0)  -->
<svg version="1.1" id="Layer_1" xmlns="http://www.w3.org/2000/svg" xmlns:xlink="http://www.w3.org/1999/xlink" x="0px" y="0px"
	 viewBox="0 0 362.378 362.378" style="enable-background:new 0 0 362.378 362.378;" xml:space="preserve">
<circle style="fill:#F2F2F2;" cx="183.916" cy="181.189" r="178.462"/>
<g>
	<rect x="14.439" y="255.577" style="fill:#D9D8D7;" width="51.392" height="49.428"/>
	<rect x="84.608" y="255.577" style="fill:#D9D8D7;" width="51.377" height="34.038"/>
	<rect x="154.772" y="255.577" style="fill:#D9D8D7;" width="51.372" height="28.315"/>
	<rect x="224.926" y="255.577" style="fill:#D9D8D7;" width="51.392" height="45.408"/>
</g>
<rect x="14.439" y="118.518" style="fill:#FFFFFF;" width="9.396" height="135.458"/>
<rect x="28.453" y="66.284" style="fill:#21D8DE;" width="9.364" height="187.692"/>
<rect x="42.442" y="136.34" style="fill:#3E4959;" width="9.401" height="117.652"/>
<rect x="56.433" y="97.546" style="fill:#FF6D3B;" width="9.381" height="156.431"/>
<rect x="84.608" y="215.478" style="fill:#FFFFFF;" width="9.381" height="38.511"/>
<rect x="98.599" y="166.395" style="fill:#21D8DE;" width="9.383" height="87.594"/>
<rect x="112.606" y="182.641" style="fill:#3E4959;" width="9.396" height="71.333"/>
<rect x="126.612" y="124.77" style="fill:#FF6D3B;" width="9.383" height="129.206"/>
<rect x="154.772" y="207.897" style="fill:#FFFFFF;" width="9.378" height="46.09"/>
<rect x="168.778" y="216.143" style="fill:#21D8DE;" width="9.376" height="37.829"/>
<rect x="182.759" y="146.457" style="fill:#3E4959;" width="9.393" height="107.532"/>
<rect x="196.79" y="179.244" style="fill:#FF6D3B;" width="9.359" height="74.742"/>
<rect x="224.926" y="81.447" style="fill:#FFFFFF;" width="9.396" height="172.529"/>
<rect x="238.932" y="135.65" style="fill:#21D8DE;" width="9.398" height="118.326"/>
<rect x="252.938" y="187.958" style="fill:#3E4959;" width="9.376" height="66.026"/>
<rect x="266.944" y="108.204" style="fill:#FF6D3B;" width="9.376" height="145.772"/>
<path style="fill:#3E4959;" d="M315.134,109.113c-4.229,0-7.655,3.451-7.655,7.658c0,4.249,3.429,7.655,7.655,7.655
	s7.638-3.409,7.638-7.655C322.772,112.564,319.362,109.113,315.134,109.113z"/>
<path style="fill:#21D8DE;" d="M315.134,152.549c-4.229,0-7.655,3.414-7.655,7.658c0,4.207,3.429,7.655,7.655,7.655
	s7.638-3.449,7.638-7.655C322.772,155.963,319.362,152.549,315.134,152.549z"/>
<path style="fill:#FFFFFF;" d="M315.134,195.993c-4.229,0-7.655,3.409-7.655,7.653c0,4.207,3.429,7.618,7.655,7.618
	s7.638-3.412,7.638-7.618C322.772,199.399,319.362,195.993,315.134,195.993z"/>
<path style="fill:#FF6D3B;" d="M315.134,239.387c-4.229,0-7.655,3.451-7.655,7.658c0,4.207,3.429,7.653,7.655,7.653
	s7.638-3.446,7.638-7.653C322.772,242.838,319.362,239.387,315.134,239.387z"/>
<polygon style="fill:#242D3C;" points="5.445,253.977 5.445,57.386 0,57.386 0,58.996 3.838,58.996 3.838,85.457 0,85.457 0,87.097 
	3.838,87.097 3.838,113.558 0,113.558 0,115.17 3.838,115.17 3.838,141.632 0,141.632 0,143.271 3.838,143.271 3.838,169.733 
	0,169.733 0,171.343 3.838,171.343 3.838,197.804 0,197.804 0,199.444 3.838,199.444 3.838,225.905 0,225.905 0,227.515 
	3.838,227.515 3.838,255.564 291.483,255.564 291.483,253.977 "/>
<g>
</g>
<g>
</g>
<g>
</g>
<g>
</g>
<g>
</g>
<g>
</g>
<g>
</g>
<g>
</g>
<g>
</g>
<g>
</g>
<g>
</g>
<g>
</g>
<g>
</g>
<g>
</g>
<g>
</g>
</svg>
