<svg width="21" height="20" viewBox="0 0 21 20" fill="none" xmlns="http://www.w3.org/2000/svg">
<path d="M0.37702 20C0.150808 20 0 19.8491 0 19.6226V0.377358C0 0.150943 0.150808 0 0.37702 0C0.603232 0 0.75404 0.150943 0.75404 0.377358V19.6226C0.75404 19.8491 0.603232 20 0.37702 20Z" fill="#212529"/>
<path d="M4.78815 16.3774C4.56194 16.3774 4.41113 16.2264 4.41113 16V7.58491C4.41113 7.35849 4.56194 7.20755 4.78815 7.20755C5.01436 7.20755 5.16517 7.35849 5.16517 7.58491V16.0377C5.16517 16.2264 4.97666 16.3774 4.78815 16.3774Z" fill="#212529"/>
<path d="M8.3321 16.3774C8.10589 16.3774 7.95508 16.2264 7.95508 16V4.00001C7.95508 3.77359 8.10589 3.62265 8.3321 3.62265C8.55831 3.62265 8.70912 3.77359 8.70912 4.00001V16.0377C8.70912 16.2264 8.52061 16.3774 8.3321 16.3774Z" fill="#212529"/>
<path d="M16.5513 16.3774C16.3251 16.3774 16.1743 16.2264 16.1743 16V4.00001C16.1743 3.77359 16.3251 3.62265 16.5513 3.62265C16.7775 3.62265 16.9284 3.77359 16.9284 4.00001V16.0377C16.9284 16.2264 16.7775 16.3774 16.5513 16.3774Z" fill="#212529"/>
<path d="M12.1778 16.3774C11.9516 16.3774 11.8008 16.2264 11.8008 16V6.03773C11.8008 5.81131 11.9516 5.66037 12.1778 5.66037C12.404 5.66037 12.5548 5.81131 12.5548 6.03773V16C12.5548 16.2264 12.3663 16.3774 12.1778 16.3774Z" fill="#212529"/>
<path d="M20.623 20H0.37702C0.150808 20 0 19.849 0 19.6226C0 19.3962 0.150808 19.2453 0.37702 19.2453H20.623C20.8492 19.2453 21 19.3962 21 19.6226C21 19.849 20.8115 20 20.623 20Z" fill="#212529"/>
</svg>
