<svg width="17" height="9" viewBox="0 0 17 9" fill="none" xmlns="http://www.w3.org/2000/svg">
<g clip-path="url(#clip0)">
<path d="M0 1.00001V0.200012H2.1V8.70001H1.3V1.00001H0Z" fill="black"/>
<path d="M7.0001 5.2C7.8001 4.3 8.3001 3.4 8.3001 2.5C8.3001 2 8.2001 1.6 7.9001 1.2C7.6001 0.9 7.1001 0.8 6.5001 0.8C5.9001 0.8 5.4001 1 5.1001 1.4C4.8001 1.8 4.6001 2.3 4.6001 2.9H3.7001C3.8001 2 4.1001 1.3 4.6001 0.8C5.1001 0.3 5.8001 0 6.6001 0C7.4001 0 8.0001 0.2 8.4001 0.6C8.8001 1 9.1001 1.6 9.1001 2.4C9.1001 3.1 8.9001 3.7 8.4001 4.4C8.0001 5.2 7.5001 5.8 6.8001 6.4C6.1001 7 5.5001 7.5 4.8001 7.9H9.3001V8.6H3.6001V8C5.0001 7.1 6.1001 6.1 7.0001 5.2Z" fill="black"/>
<path d="M14.8 0.3C15.2 0.5 15.5 0.7 15.7 1.1C15.9 1.4 16 1.8 16 2.2C16 2.7 15.8 3.2 15.5 3.5C15.2 3.9 14.7 4.1 14.1 4.1V4.2C14.7 4.4 15.2 4.6 15.6 5C16 5.3 16.1 5.8 16.1 6.4C16.1 7.1 15.9 7.6 15.4 8.1C14.9 8.5 14.3 8.7 13.4 8.7C12.5 8.7 11.9 8.5 11.3 8C10.7 7.5 10.6 7 10.5 6.1H11.3C11.4 6.7 11.6 7.1 12 7.5C12.3 7.8 12.8 8 13.5 8C14.1 8 14.6 7.8 14.9 7.5C15.2 7.2 15.4 6.8 15.4 6.3C15.4 5.7 15.2 5.3 14.7 5C14.2 4.7 13.6 4.6 12.8 4.6H12.5V3.9H12.8C14.4 3.9 15.2 3.4 15.2 2.3C15.2 1.8 15 1.5 14.7 1.2C14.4 0.9 14 0.8 13.4 0.8C12.9 0.8 12.4 0.9 12.1 1.2C11.8 1.5 11.5 1.9 11.4 2.5H10.6C10.7 1.7 10.9 1.1 11.4 0.7C11.9 0.3 12.6 0 13.4 0C14 0 14.4 0.1 14.8 0.3Z" fill="black"/>
</g>
<defs>
<clipPath id="clip0">
<rect width="16.1" height="8.7" fill="white"/>
</clipPath>
</defs>
</svg>
