<?xml version="1.0" encoding="UTF-8"?>
<svg xmlns="http://www.w3.org/2000/svg" xmlns:xlink="http://www.w3.org/1999/xlink" width="26px" height="18px" viewBox="0 0 26 18" version="1.1">
<g id="surface1">
<path style=" stroke:none;fill-rule:nonzero;fill:rgb(0%,0%,0%);fill-opacity:1;" d="M 7.992188 6.558594 C 3.585938 6.558594 0 9.039062 0 12.089844 C 0 15.144531 3.585938 17.625 7.992188 17.625 C 12.402344 17.625 15.988281 15.144531 15.988281 12.089844 C 15.988281 9.039062 12.402344 6.558594 7.992188 6.558594 Z M 7.992188 16.882812 C 4.179688 16.882812 1.074219 14.734375 1.074219 12.089844 C 1.074219 9.449219 4.179688 7.300781 7.992188 7.300781 C 11.808594 7.300781 14.914062 9.449219 14.914062 12.089844 C 14.914062 14.734375 11.808594 16.882812 7.992188 16.882812 Z M 7.992188 16.882812 "/>
<path style=" stroke:none;fill-rule:nonzero;fill:rgb(0%,0%,0%);fill-opacity:1;" d="M 7.992188 8.621094 C 7.699219 8.621094 7.457031 8.789062 7.457031 8.996094 C 7.457031 9.199219 7.699219 9.367188 7.992188 9.367188 C 10.164062 9.367188 11.929688 10.589844 11.929688 12.089844 C 11.929688 12.296875 12.171875 12.464844 12.46875 12.464844 C 12.765625 12.464844 13.003906 12.296875 13.003906 12.089844 C 13.003906 10.179688 10.757812 8.621094 7.992188 8.621094 Z M 7.992188 8.621094 "/>
<path style=" stroke:none;fill-rule:nonzero;fill:rgb(0%,0%,0%);fill-opacity:1;" d="M 21.355469 3.460938 C 18.796875 3.460938 16.714844 4.902344 16.714844 6.675781 C 16.714844 8.449219 18.796875 9.890625 21.355469 9.890625 C 23.917969 9.890625 26 8.449219 26 6.675781 C 26 4.902344 23.917969 3.460938 21.355469 3.460938 Z M 21.355469 9.144531 C 19.390625 9.144531 17.789062 8.039062 17.789062 6.675781 C 17.789062 5.3125 19.390625 4.203125 21.355469 4.203125 C 23.324219 4.203125 24.925781 5.3125 24.925781 6.675781 C 24.925781 8.039062 23.324219 9.144531 21.355469 9.144531 Z M 21.355469 9.144531 "/>
<path style=" stroke:none;fill-rule:nonzero;fill:rgb(0%,0%,0%);fill-opacity:1;" d="M 21.621094 7.828125 C 20.558594 7.828125 19.695312 7.230469 19.695312 6.492188 C 19.695312 6.289062 19.453125 6.121094 19.15625 6.121094 C 18.859375 6.121094 18.621094 6.289062 18.621094 6.492188 C 18.621094 7.636719 19.964844 8.570312 21.621094 8.570312 C 21.917969 8.570312 22.15625 8.402344 22.15625 8.199219 C 22.15625 7.992188 21.917969 7.828125 21.621094 7.828125 Z M 21.621094 7.828125 "/>
<path style=" stroke:none;fill-rule:nonzero;fill:rgb(0%,0%,0%);fill-opacity:1;" d="M 8.832031 4.785156 C 10.589844 4.785156 12.015625 3.796875 12.015625 2.578125 C 12.015625 1.363281 10.589844 0.375 8.832031 0.375 C 7.074219 0.375 5.644531 1.363281 5.644531 2.578125 C 5.644531 3.796875 7.074219 4.785156 8.832031 4.785156 Z M 8.832031 1.117188 C 9.996094 1.117188 10.945312 1.773438 10.945312 2.578125 C 10.945312 3.386719 9.996094 4.042969 8.832031 4.042969 C 7.667969 4.042969 6.71875 3.386719 6.71875 2.578125 C 6.71875 1.773438 7.667969 1.117188 8.832031 1.117188 Z M 8.832031 1.117188 "/>
</g>
</svg>
