<svg width="20" height="20" viewBox="0 0 20 20" fill="none" xmlns="http://www.w3.org/2000/svg">
<path d="M10 0C4.46667 0 0 4.46667 0 10C0 15.5333 4.46667 20 10 20C15.5333 20 20 15.5333 20 10C20 4.46667 15.5333 0 10 0ZM14.5667 15.2667C15.0667 13.6667 15.3 12 15.3333 10.3333H19.3333C19.2667 12.5 18.4333 14.5667 17 16.1667C16.2 15.7667 15.4 15.4667 14.5667 15.2667ZM3 16.1667C1.56667 14.5667 0.766667 12.5 0.666667 10.3333H4.66667C4.66667 12 4.93333 13.6667 5.43333 15.2667C4.6 15.4667 3.8 15.7667 3 16.1667ZM5.43333 4.73333C4.93333 6.33333 4.7 8 4.66667 9.66667H0.666667C0.733333 7.5 1.56667 5.43333 3 3.83333C3.8 4.23333 4.6 4.53333 5.43333 4.73333ZM9.66667 9.66667H5.33333C5.33333 8.06667 5.6 6.43333 6.1 4.9C7.26667 5.16667 8.46667 5.3 9.66667 5.3V9.66667ZM9.66667 10.3333V14.6667C8.46667 14.6667 7.26667 14.8333 6.1 15.0667C5.6 13.5333 5.36667 11.9333 5.33333 10.3H9.66667V10.3333ZM10.3333 10.3333H14.6667C14.6667 11.9333 14.4 13.5667 13.9 15.1C12.7333 14.8333 11.5333 14.7 10.3333 14.7V10.3333ZM10.3333 9.66667V5.33333C11.5333 5.33333 12.7333 5.16667 13.9 4.93333C14.4 6.46667 14.6333 8.06667 14.6667 9.7H10.3333V9.66667ZM10.3333 4.66667V0.7C11.7 0.9 12.9 2.26667 13.6667 4.26667C12.5667 4.5 11.4667 4.63333 10.3333 4.66667ZM9.66667 0.7V4.66667C8.53333 4.66667 7.43333 4.53333 6.33333 4.3C7.1 2.23333 8.3 0.9 9.66667 0.7ZM9.66667 15.3333V19.3C8.3 19.1 7.1 17.7333 6.33333 15.7333C7.43333 15.5 8.53333 15.3667 9.66667 15.3333ZM10.3333 19.3V15.3333C11.4667 15.3333 12.5667 15.4667 13.6667 15.7C12.9 17.7667 11.7 19.1 10.3333 19.3ZM15.3333 9.66667C15.3333 8 15.0667 6.33333 14.5667 4.73333C15.4 4.5 16.2333 4.2 17 3.8C18.4333 5.43333 19.2667 7.5 19.3333 9.63333H15.3333V9.66667ZM16.5 3.33333C15.8 3.66667 15.0667 3.93333 14.3333 4.13333C13.9333 2.93333 13.2333 1.86667 12.3 0.966667C13.9 1.36667 15.3333 2.16667 16.5 3.33333ZM5.66667 4.13333C4.93333 3.93333 4.2 3.66667 3.5 3.33333C4.66667 2.2 6.1 1.36667 7.7 0.966667C6.76667 1.83333 6.06667 2.93333 5.66667 4.13333ZM3.5 16.6667C4.2 16.3333 4.93333 16.0667 5.66667 15.8667C6.06667 17.0667 6.76667 18.1333 7.7 19.0333C6.1 18.6333 4.66667 17.8333 3.5 16.6667ZM14.3333 15.8667C15.0667 16.0667 15.8 16.3333 16.5 16.6667C15.3333 17.8 13.9 18.6333 12.3 19.0333C13.2333 18.1667 13.9333 17.0667 14.3333 15.8667Z" fill="black"/>
</svg>
