<svg width="21" height="20" viewBox="0 0 21 20" fill="none" xmlns="http://www.w3.org/2000/svg">
<path d="M0.37702 20C0.150808 20 0 19.8491 0 19.6226V0.377358C0 0.150943 0.150808 0 0.37702 0C0.603232 0 0.75404 0.150943 0.75404 0.377358V19.6226C0.75404 19.8491 0.603232 20 0.37702 20Z" fill="#212529"/>
<path d="M20.623 20H0.37702C0.150808 20 0 19.8491 0 19.6227C0 19.3962 0.150808 19.2453 0.37702 19.2453H20.623C20.8492 19.2453 21 19.3962 21 19.6227C21 19.8491 20.8115 20 20.623 20Z" fill="#212529"/>
<path d="M3.58154 16.1887L7.50255 10.3396L11.6121 13.283L17.7575 4.90567" stroke="#212529" stroke-miterlimit="10"/>
</svg>
