<svg width="20" height="20" viewBox="0 0 20 20" fill="none" xmlns="http://www.w3.org/2000/svg">
<path d="M10.0002 10.3333H2.66683C2.46683 10.3333 2.3335 10.2 2.3335 9.99998V2.66665C2.3335 2.46665 2.46683 2.33331 2.66683 2.33331H10.0002C10.2002 2.33331 10.3335 2.46665 10.3335 2.66665V9.99998C10.3335 10.2 10.2002 10.3333 10.0002 10.3333ZM3.00016 9.66665H9.66683V2.99998H3.00016V9.66665Z" fill="#212529"/>
<path d="M17.3332 10.3333H9.99984C9.79984 10.3333 9.6665 10.2 9.6665 9.99998V2.66665C9.6665 2.46665 9.79984 2.33331 9.99984 2.33331H17.3332C17.5332 2.33331 17.6665 2.46665 17.6665 2.66665V9.99998C17.6665 10.2 17.5332 10.3333 17.3332 10.3333ZM10.3332 9.66665H16.9998V2.99998H10.3332V9.66665Z" fill="#212529"/>
<path d="M10.0002 17.6667H2.66683C2.46683 17.6667 2.3335 17.5334 2.3335 17.3334V10C2.3335 9.80002 2.46683 9.66669 2.66683 9.66669H10.0002C10.2002 9.66669 10.3335 9.80002 10.3335 10V17.3334C10.3335 17.5334 10.2002 17.6667 10.0002 17.6667ZM3.00016 17H9.66683V10.3334H3.00016V17Z" fill="#212529"/>
<path d="M17.3332 17.6667H9.99984C9.79984 17.6667 9.6665 17.5334 9.6665 17.3334V10C9.6665 9.80002 9.79984 9.66669 9.99984 9.66669H17.3332C17.5332 9.66669 17.6665 9.80002 17.6665 10V17.3334C17.6665 17.5334 17.5332 17.6667 17.3332 17.6667ZM10.3332 17H16.9998V10.3334H10.3332V17Z" fill="#212529"/>
<path d="M2.66683 20C2.46683 20 2.3335 19.8667 2.3335 19.6667V0.333333C2.3335 0.133333 2.46683 0 2.66683 0C2.86683 0 3.00016 0.133333 3.00016 0.333333V19.6667C3.00016 19.8667 2.86683 20 2.66683 20Z" fill="#212529"/>
<path d="M17.3333 20C17.1333 20 17 19.8667 17 19.6667V0.333333C17 0.133333 17.1333 0 17.3333 0C17.5333 0 17.6667 0.133333 17.6667 0.333333V19.6667C17.6667 19.8667 17.5333 20 17.3333 20Z" fill="#212529"/>
<path d="M19.6667 2.99998H0.333333C0.133333 2.99998 0 2.86665 0 2.66665C0 2.46665 0.133333 2.33331 0.333333 2.33331H19.6667C19.8667 2.33331 20 2.46665 20 2.66665C20 2.86665 19.8667 2.99998 19.6667 2.99998Z" fill="#212529"/>
<path d="M19.6667 17.6667H0.333333C0.133333 17.6667 0 17.5333 0 17.3333C0 17.1333 0.133333 17 0.333333 17H19.6667C19.8667 17 20 17.1333 20 17.3333C20 17.5333 19.8667 17.6667 19.6667 17.6667Z" fill="#212529"/>
</svg>
