<svg width="24" height="12" viewBox="0 0 24 12" fill="none" xmlns="http://www.w3.org/2000/svg">
<path d="M12 0.489796C18.3574 0.489796 23.4894 5.41225 23.4894 11.5102H0.510638C0.510638 5.41225 5.64255 0.489796 12 0.489796ZM12 10.4082C13.1745 10.4082 14.017 9.3551 13.7362 8.27755L12 1.59184L10.2638 8.27755C9.98298 9.3551 10.8255 10.4082 12 10.4082ZM12 0C5.38723 0 0 5.16735 0 11.5102V12H0.510638H23.4894H24V11.5102C24 5.16735 18.6128 0 12 0ZM12 9.91837C11.5915 9.91837 11.234 9.74694 10.9787 9.45306C10.7234 9.15918 10.6468 8.76735 10.7489 8.4L12 3.6L13.2511 8.37551C13.3532 8.74286 13.2511 9.13469 13.0213 9.42857C12.766 9.74694 12.4085 9.91837 12 9.91837Z" fill="black"/>
</svg>
