<svg width="17" height="20" viewBox="0 0 17 20" fill="none" xmlns="http://www.w3.org/2000/svg">
<g clip-path="url(#clip0)">
<path d="M9.4 0.466667V9.04445L3.37778 3C5.04444 1.6 7.22222 0.688889 9.4 0.466667ZM11.1778 4.46667C12.3333 4.62222 13.4444 5.08889 14.3778 5.8L11.1778 9.04445V4.46667ZM2.73333 4.64444L8.24444 10.2H0.466667C0.666667 8.24444 1.48889 6.17778 2.73333 4.64444ZM14.4 8.31111C14.7778 8.88889 15.0444 9.6 15.1778 10.2H12.5111L14.4 8.31111ZM16.5111 11.9778C16.3778 13.0222 16 13.9556 15.3333 14.8222L12.5111 11.9778H16.5111ZM8.22222 11.9778L3.31111 16.9333C2.17778 15.5111 1.46667 13.7778 1.26667 11.9778H8.22222ZM9.4 13.3778V19.5111C7.8 19.3333 6.33333 18.7111 5.08889 17.7111L9.4 13.3778ZM11.1778 13.3778L14.8 17C13.7556 17.8222 12.5333 18.3556 11.1778 18.5111V13.3778ZM9.84444 0C7.4 0.111111 4.68889 1.15556 2.73333 2.97778L9.84444 10.1333V0ZM10.7333 3.97778V10.1333L15.0444 5.77778C13.8444 4.71111 12.2889 4.06667 10.7333 3.97778ZM2.71111 4C1.04444 5.84444 0.0888889 8.42222 0 10.6444H9.31111L2.71111 4ZM14.4444 7.62222L11.4444 10.6444H15.6889C15.6 9.75556 15.1556 8.46667 14.4444 7.62222ZM17 11.5333H11.4444L15.3778 15.4889C16.3333 14.3778 16.9111 13.0889 17 11.5333ZM9.28889 11.5333H0.8C0.911111 13.7556 1.77778 15.9111 3.28889 17.6L9.28889 11.5333ZM10.7333 12.3111V19.0222C12.5111 18.9111 14.1333 18.2444 15.4444 17.0444L10.7333 12.3111ZM9.84444 12.3111L4.44444 17.7333C5.95556 19.1111 7.84444 19.8889 9.84444 20V12.3111Z" fill="black" stroke="black" stroke-width="0.25"/>
</g>
<defs>
<clipPath id="clip0">
<rect width="17" height="20" fill="white"/>
</clipPath>
</defs>
</svg>
