<svg width="21" height="20" viewBox="0 0 21 20" fill="none" xmlns="http://www.w3.org/2000/svg">
<path d="M0.37702 20C0.150808 20 0 19.8491 0 19.6226V0.377358C0 0.150943 0.150808 0 0.37702 0C0.603232 0 0.75404 0.150943 0.75404 0.377358V19.6226C0.75404 19.8491 0.603232 20 0.37702 20Z" fill="#212529"/>
<path d="M20.623 20H0.37702C0.150808 20 0 19.849 0 19.6226C0 19.3962 0.150808 19.2453 0.37702 19.2453H20.623C20.8492 19.2453 21 19.3962 21 19.6226C21 19.849 20.8115 20 20.623 20Z" fill="#212529"/>
<path d="M2.67689 9.69812L8.6715 17.2076H2.67689V9.69812ZM1.92285 7.54718V9.69812V17.2076V17.9623H2.67689H8.6715H10.255L9.27474 16.7547L3.24242 9.20756L1.92285 7.54718Z" fill="#212529"/>
<path d="M18.851 3.96228V17.2076H12.8564L7.01262 10.4906L18.851 3.96228ZM19.6051 2.67926L18.474 3.28303L6.6356 9.84907L5.80615 10.3019L6.40938 11.0189L12.2532 17.7359L12.4794 18H12.8187H18.851H19.6051V17.2453V3.96228V2.67926Z" fill="#212529"/>
</svg>
